<svg width="24" height="24" viewBox="0 0 24 24" fill="none" xmlns="http://www.w3.org/2000/svg">
<path d="M20 12.4227V19H16.3562V12.863C16.3562 11.3209 15.829 10.2691 14.5105 10.2691C13.5037 10.2691 12.9041 10.9787 12.6409 11.6641C12.5447 11.9092 12.52 12.2506 12.52 12.5938V19H8.87449C8.87449 19 8.92389 8.60675 8.87449 7.5291H12.52V9.15494L12.4961 9.19238H12.52V9.15494C13.0038 8.375 13.8683 7.25991 15.8043 7.25991C18.202 7.25991 20 8.90001 20 12.4227ZM5.06208 2C3.81597 2 3 2.8557 3 3.98149C3 5.08232 3.79212 5.96387 5.01438 5.96387H5.03823C6.30989 5.96387 7.09945 5.08232 7.09945 3.98149C7.07731 2.8557 6.31074 2 5.06293 2H5.06208ZM3.21634 19H6.86011V7.5291H3.21634V19Z" fill="currentColor"/>
</svg>
